<?xml version="1.0" encoding="UTF-8" standalone="no"?>
<!-- Created with Inkscape (http://www.inkscape.org/) -->

<svg
   width="99.960693"
   height="97.826538"
   viewBox="0 0 26.447933 25.883272"
   version="1.1"
   id="svg5"
   inkscape:version="1.1.1 (3bf5ae0d25, 2021-09-20)"
   sodipodi:docname="nccu_logo.svg"
   xmlns:inkscape="http://www.inkscape.org/namespaces/inkscape"
   xmlns:sodipodi="http://sodipodi.sourceforge.net/DTD/sodipodi-0.dtd"
   xmlns="http://www.w3.org/2000/svg"
   xmlns:svg="http://www.w3.org/2000/svg">
  <sodipodi:namedview
     id="namedview7"
     pagecolor="#505050"
     bordercolor="#ffffff"
     borderopacity="1"
     inkscape:pageshadow="0"
     inkscape:pageopacity="0"
     inkscape:pagecheckerboard="1"
     inkscape:document-units="mm"
     showgrid="false"
     fit-margin-top="0"
     fit-margin-left="0"
     fit-margin-right="0"
     fit-margin-bottom="0"
     units="px"
     inkscape:zoom="8"
     inkscape:cx="40.375"
     inkscape:cy="44.125"
     inkscape:window-width="3440"
     inkscape:window-height="1411"
     inkscape:window-x="1431"
     inkscape:window-y="-9"
     inkscape:window-maximized="1"
     inkscape:current-layer="layer1" />
  <defs
     id="defs2" />
  <g
     inkscape:label="圖層 1"
     inkscape:groupmode="layer"
     id="layer1"
     transform="translate(-96.322425,-117.35733)">
    <g
       id="g10"
       transform="matrix(0.03527778,0,0,-0.03527778,96.32236,143.2406)"
       style="display:inline"
       inkscape:label="g10">
      <path
         d="m 747.348,408.43 c -0.141,52.008 -18.164,96.226 -54.078,133.113 -36.395,36.418 -80.348,55.039 -131.875,55.391 -2.465,0.019 -4.942,0.039 -7.426,-0.43 -8.211,29.266 -23.887,55.633 -47.004,79.062 -36.414,36.426 -80.371,55.039 -131.883,55.391 -52.008,0.359 -96.211,-17.668 -132.621,-53.574 -22.441,-22.149 -38.469,-47.293 -47.074,-74.981 -0.989,0 -1.981,0.008 -2.477,0.02 C 140.902,602.773 96.207,584.773 59.8047,548.848 22.8906,512.441 4.26953,468.484 4.41016,416.484 3.55469,364.473 21.5781,320.273 57.9883,283.867 65.8555,275.391 74.7227,267.898 84.0859,261.387 75.5195,240.156 71.4023,217.402 71.7344,193.125 70.8789,141.113 88.9063,96.9023 125.316,60.5 161.223,23.6016 205.676,4.97266 257.676,4.60938 300.77,4.33594 338.508,16.9336 370.875,41.9805 403.891,16.4844 442.426,3.35938 485.512,3.06641 537.035,2.70313 581.238,20.7422 618.141,57.1289 c 36.91,35.8984 55.531,79.8751 55.89,131.8831 0.145,22.277 -3.172,43.605 -9.984,62.968 9.476,7.864 18.449,16.223 27.418,24.583 36.41,35.898 55.035,79.863 55.883,131.867"
         style="display:inline;fill:#ffffff;fill-opacity:1;fill-rule:nonzero;stroke:none"
         id="path12" />
      <path
         d="m 544.797,592.762 c 0,-1.004 0.496,-2 1.988,-2.5 0.512,-0.496 1.508,-1.004 3.012,-1.004 3.496,0.508 7.488,0.508 10.984,0.508 49.485,0 91.465,-17.5 126.453,-51.993 34.993,-34.98 52.485,-77.46 52.485,-126.945 -0.5,-49.48 -18,-91.961 -52.485,-126.453 -9.5,-8.984 -19.492,-17.48 -29.492,-25.977 -0.996,-0.507 -1.492,-1.503 -1.492,-3.007 -0.496,-0.996 -0.496,-1.993 0,-2.989 7.5,-19.492 10.996,-40.996 10.996,-63.476 0,-49.492 -17.5,-91.9729 -52.48,-126.4651 C 579.773,27.4805 537.793,10 488.313,10 c -42.981,0 -80.461,12.9883 -112.954,38.9844 -1,0.4883 -2,0.9961 -2.996,0.9961 -1.5,0 -2.5,-0.5078 -3.004,-1.5039 C 337.875,22.9883 300.891,10 258.406,10 208.926,10 166.445,27.4805 131.461,62.4609 96.4688,96.9531 78.9805,139.434 79.4766,188.926 c -0.4961,24.492 3.5,47.48 13,68.965 0.4961,0.996 0.4961,1.992 0,3.496 -0.5039,0.996 -1.0039,2.011 -2.0039,2.5 -10.4922,6.992 -19.9883,15 -28.4844,23.496 -34.9844,34.492 -52.48049,76.965 -51.9844,126.445 -0.49609,49.481 17,91.973 51.9844,126.953 34.9844,34.481 77.4647,51.981 126.9497,51.981 1.996,0 3.996,0 6.496,0 0.996,0 2,0.5 3,1 0.496,0.496 1,1.5 1.5,2.5 7.996,27.988 22.988,52.965 45.48,75.465 34.484,34.492 76.969,51.984 126.445,51.984 49.481,0 91.469,-17.492 126.454,-51.984 22.988,-22.997 38.484,-49.481 46.484,-78.965 z m 15.984,6.996 c -2.488,0 -4.988,0 -7.488,-0.5 -8.496,29.492 -24.492,55.976 -47.98,79.461 -36.993,36.496 -81.473,54.98 -133.454,54.98 -52.472,0 -96.957,-18.484 -133.445,-54.98 -22.492,-22.489 -38.48,-47.977 -46.976,-75.965 -1.004,0 -2.004,0 -2.5,0 -52.485,0 -97.4653,-18.488 -133.9497,-54.981 C 18.0039,510.793 -0.488281,466.309 0.0117188,413.828 -0.488281,361.348 18.0039,316.875 54.9883,280.391 c 7.9961,-8.496 16.9922,-15.996 26.4922,-22.5 -8.5039,-21.485 -12.4961,-44.473 -12,-68.965 C 68.9844,136.445 87.4766,91.9531 124.465,55.4688 160.945,18.4961 205.93,0 258.406,0 301.891,0 339.871,12.9883 372.363,38.4766 405.852,12.9883 444.836,0 488.313,0 c 51.98,0 96.46,18.4961 133.445,55.4688 36.992,36.4843 55.476,80.9762 55.476,133.4572 0,22.48 -3.496,43.984 -10.496,63.476 9.5,7.989 18.496,16.485 27.492,24.981 36.493,36.484 54.981,80.965 55.477,133.445 -0.496,52.481 -18.992,96.965 -55.477,133.945 -36.984,36.489 -81.464,54.985 -133.449,54.985"
         style="display:inline;fill:#19338f;fill-opacity:1;fill-rule:nonzero;stroke:none"
         id="path14" />
      <path
         d="m 533.301,499.297 c 42.48,-42.492 63.972,-93.457 63.972,-153.945 0,-60.469 -21.492,-111.446 -63.972,-153.926 -42.488,-42.481 -93.465,-63.477 -153.442,-63.985 -60.472,0.508 -111.457,21.504 -153.941,63.985 -42.48,42.48 -63.473,93.457 -63.473,153.926 0,60.488 20.993,111.453 63.473,153.945 42.484,42.48 93.469,63.465 153.941,63.465 59.977,0 110.954,-20.985 153.442,-63.465 z m 17.492,69.969 c -5.996,0 -11.496,1.496 -15.996,5 -5,3.496 -8,8 -9.492,13.496 -7.5,25.988 -20.996,48.984 -41.489,69.465 -30.984,30.996 -68.472,46.492 -111.957,46.492 -43.976,0 -81.464,-15.496 -112.457,-45.985 l -0.496,-0.507 c -19.492,-19.493 -32.484,-41.473 -39.48,-66.465 -1.5,-5.5 -4.504,-9.5 -9,-13 -4.496,-3.496 -9.496,-5 -14.996,-5 -2.496,0 -4.496,0 -6.996,0 -43.981,0 -81.465,-15.496 -112.4535,-45.985 l -0.5039,-0.5 C 44.9883,495.305 29.4961,457.813 29.4961,413.828 c 0,-43.984 15.4922,-81.465 46.4844,-111.953 7.9922,-7.988 16.4922,-15 25.4885,-21.484 5,-3.008 8.496,-7.5 9.996,-13.496 1.5,-5.508 1.5,-10.997 -1,-16.504 -7.496,-18.985 -11.4962,-39.473 -11.4962,-61.465 0,-43.985 15.4962,-81.465 46.4842,-111.9533 30.988,-31.5039 68.473,-46.9922 112.453,-46.9922 37.485,0 70.473,11.5039 98.461,34.4922 4.496,3.4961 9.996,5.4882 15.996,5.4882 5.496,0.5079 10.996,-1.4843 15.992,-5.4882 28.493,-22.9883 61.977,-34.4922 99.958,-34.4922 43.484,0 80.964,15.4883 111.96,46.4843 l 0.497,0.5079 c 30.988,30.4883 46.476,67.9683 46.476,111.9533 0,20.488 -3.496,39.472 -9.988,56.972 -2.004,5 -2.004,10 -0.5,15.489 1.496,5.508 3.996,9.492 8.496,13.008 9.492,7.48 18.992,15.488 27.488,23.984 l 0.5,0.488 c 30.488,30.488 45.977,67.981 45.977,111.961 0,43.985 -15.489,81.477 -46.477,112.465 -30.984,30.973 -68.472,46.473 -111.961,46.473 -3.496,0 -6.992,0 -9.988,-0.5"
         style="display:inline;fill:#19338f;fill-opacity:1;fill-rule:nonzero;stroke:none"
         id="path16" />
      <path
         d="m 512.805,479.305 c 36.992,-36.992 55.476,-81.461 55.476,-133.953 0,-52.481 -18.484,-96.954 -55.476,-133.438 -36.489,-36.992 -80.969,-55.488 -133.446,-55.488 -52.48,0 -96.961,18.496 -133.445,55.488 -36.988,36.484 -55.48,80.957 -54.98,133.438 -0.5,52.492 17.992,96.961 54.98,133.953 36.484,36.488 80.965,54.972 133.445,54.972 52.477,0 96.957,-18.484 133.446,-54.972 z m 65.476,-133.953 c 0,54.992 -19.492,101.961 -58.476,140.949 -38.489,38.484 -85.469,57.976 -140.446,57.976 -54.98,0 -101.961,-19.492 -140.445,-57.976 -38.484,-38.988 -57.976,-85.957 -57.976,-140.949 0,-54.981 19.492,-101.954 57.976,-140.43 38.484,-38.984 85.465,-58.477 140.445,-58.477 54.977,0 101.957,19.493 140.446,58.477 38.984,38.476 58.476,85.449 58.476,140.43"
         style="display:inline;fill:#19338f;fill-opacity:1;fill-rule:nonzero;stroke:none"
         id="path18" />
      <path
         d="m 491.816,482.805 c -1.503,1.5 -3.503,2.5 -5.5,2.5 h -93.464 c -2,0 -3.497,-1 -4.997,-2.5 -1.5,-1.496 -2.5,-3 -2.5,-5 V 435.32 c 0,-2 1,-4.004 2.5,-5.496 1.5,-1.504 2.997,-2.004 4.997,-2.004 h 93.964 c 0,-0.996 0,-2 0,-2.996 -1.503,-9.504 -3,-17.488 -5,-24.988 v 0.508 c -2.5,-6.504 -5.996,-12.004 -10.5,-15.996 l -21.992,22.988 c -0.496,0.992 -1.492,1.504 -2.488,2 -1.008,0.5 -2,0.5 -3.008,0.5 l -43.476,0.496 c -2,0 -3.497,-0.996 -5,-2.5 -1.504,-1.492 -2.5,-2.996 -2.5,-5 0,-1.992 0.996,-3.992 2.5,-5.488 1.503,-1.504 3,-2 5,-2 l 39.98,-0.5 18.992,-20.496 c -13.496,-8.5 -35.984,-12.493 -67.469,-11.496 -2.5,0 -4,-0.508 -5.5,-2.004 -1.5,-1.493 -2.5,-2.996 -2.5,-5.496 0,-1.993 0.5,-3.497 2,-5 1.5,-1.504 3,-2.5 5.5,-2.5 36.985,-1.504 62.969,3.496 78.469,15 l 17.489,-18.497 c 1.503,-1.503 3,-1.992 5.5,-1.992 2,0 3.996,0.489 5.5,1.992 1.5,1.504 2,3.008 2,5 0,2.5 -0.5,4.004 -2,5.489 l -16.997,18.504 c 6.497,5.5 11.497,13 14.497,21.996 h 0.496 c 2.5,8.496 4.004,17.488 5.5,27.476 0,0.5 0,0.5 0,0.996 0,0.508 0,0.508 0,1.008 0,2 0,3.496 0.496,5 0,1.492 0,2.5 0,3.496 0,0.496 0,1.493 0,2 0,1.993 -0.496,3.496 -1.992,4.993 -1.504,1.503 -3.497,2.5 -5.5,2.5 h -94.461 v 27.492 h 85.964 c 1.997,0 3.997,0.496 5.5,2 1.497,1.504 1.993,3.496 1.993,5.5 0,2 -0.496,3.504 -1.993,5"
         style="display:inline;fill:#fb0f0c;fill-opacity:1;fill-rule:nonzero;stroke:none"
         id="path20" />
      <path
         d="m 498.809,318.359 c 0,2.012 -0.496,3.516 -1.993,5 -1.503,1.504 -3.503,2.5 -5.5,2.5 -24.492,0 -48.484,0 -72.468,0 h -0.508 c -0.996,0 -1.492,0 -1.992,0 -11.504,0 -20,2.012 -26.493,6.504 -6.496,4.492 -11,6.504 -12.496,5.996 -2,-0.507 -5.996,-2.5 -11.496,-5.996 -5.996,-3.496 -16.492,-5.508 -30.984,-6.504 h -70.477 c -2.5,0 -3.996,-0.996 -5.496,-2.5 -1.5,-1.484 -1.996,-2.988 -1.996,-5 v -58.476 c -0.504,-17.481 -2.5,-29.473 -5.5,-36.973 -1,-2.012 -1,-4.004 0,-5.996 0.5,-1.504 1.996,-3.008 4,-4.004 1.996,-0.508 3.992,-0.508 5.492,0 2.004,0.508 3.5,1.992 4.504,4.004 3.496,8.496 5.496,22.988 6.492,42.481 v 51.484 h 55.481 v -91.973 c 0,-1.992 1,-4.004 2.5,-5.488 1.5,-1.504 2.996,-2.012 5,-2.012 1.996,0 4,0.508 5.496,2.012 1.5,1.484 1.996,3.496 1.996,5.488 v 92.461 c 12.496,1.504 24.492,4.492 35.488,9.004 10.996,-5.508 21.996,-9.004 32.993,-9.492 v -91.973 c 0,-1.992 0.996,-4.004 2.488,-5.488 1.504,-1.504 3.008,-2.012 5,-2.012 2.004,0 4.004,0.508 5.5,2.012 1.504,1.484 2,3.496 2,5.488 v 91.973 c 19.492,0 38.484,0 57.976,0 v -44.981 c 0,-23.496 3,-40 9.497,-48.984 1.003,-1.504 2.5,-3.008 4.5,-3.496 2,-0.508 3.996,0 5.5,0.996 1.492,1.504 2.996,2.988 3.496,5 0.496,1.992 0,3.984 -0.996,5.488 -4.504,7.5 -7.004,21.504 -7.004,40.996 v 52.461"
         style="display:inline;fill:#fb0f0c;fill-opacity:1;fill-rule:nonzero;stroke:none"
         id="path22" />
      <path
         d="m 359.867,477.805 c 0,2 -0.504,3.504 -2,5 -1.5,1.5 -3.496,2.5 -5.5,2.5 h -85.961 c -2.5,0 -4,-1 -5.5,-2.5 -1.504,-1.496 -2,-3 -2,-5 0,-2.004 0.496,-3.996 2,-5.5 1.5,-1.504 3,-2 5.5,-2 h 33.985 V 362.852 h -29.489 v 58.476 c -0.504,1.992 -1,3.496 -2.5,4.988 -1.5,1.504 -2.996,2.5 -5,2.5 -2.496,0 -4,-0.996 -5.496,-2.5 -1.5,-1.492 -2,-2.996 -2,-4.988 v -63.476 c 0,-0.508 0,-0.997 0,-1.504 0,-0.489 0,-0.489 0,-0.996 0,-1.993 0.5,-4.004 2,-5.489 1.496,-1.504 3,-2.011 5.496,-2.011 h 89.469 c 1.996,0 3.992,0.507 5.496,2.011 1.5,1.485 2,3.496 2,5.489 0,1.992 -0.5,3.496 -2,5 -1.504,1.503 -3.5,2.5 -5.496,2.5 h -37.988 v 39.98 c 14.496,0 28.492,0 42.484,0 1.996,0 4,0.508 5.5,2.004 1.496,1.504 1.996,3.492 1.996,5.496 0,0.496 0,0.496 0,1.008 0,0.496 0,0.996 0,1.492 v 15.984 c 0,2.004 -0.5,3.508 -1.996,5 -1.5,1.504 -3.504,2.5 -5.5,2.5 -2,0 -3.5,-0.996 -5,-2.5 -1.5,-1.492 -2.5,-2.996 -2.5,-5 V 417.82 c -11.492,0 -23.484,0 -34.984,0 v 52.485 h 37.484 c 2.004,0 4,0.496 5.5,2 1.496,1.504 2,3.496 2,5.5"
         style="display:inline;fill:#fb0f0c;fill-opacity:1;fill-rule:nonzero;stroke:none"
         id="path24" />
    </g>
  </g>
</svg>
